<?xml version="1.0" encoding="utf-8"?>
<!-- Generator: Adobe Illustrator 17.0.0, SVG Export Plug-In . SVG Version: 6.00 Build 0)  -->
<!DOCTYPE svg PUBLIC "-//W3C//DTD SVG 1.1//EN" "http://www.w3.org/Graphics/SVG/1.1/DTD/svg11.dtd">
<svg version="1.1" id="Layer_1" xmlns="http://www.w3.org/2000/svg" xmlns:xlink="http://www.w3.org/1999/xlink" x="0px" y="0px"
	 width="255.12px" height="126.25px" viewBox="0 7.365 255.12 126.25" enable-background="new 0 7.365 255.12 126.25"
	 xml:space="preserve">
<title>beepy_logo</title>
<path fill="#00C6FF" d="M153.861,88.429l-8.515-3.187l0,0l-3.371-0.834l0,0c-11.882,4.735-21.236,3.371-26.622,1.627
	c-3.926-1.263-7.063-4.245-8.523-8.102c-0.753-1.913-1.217-3.928-1.377-5.979c-0.004-0.051-0.004-0.103,0-0.154
	c0.025-0.263,0.113-1.181,0.192-1.961c0.07-0.678,0.658-1.184,1.339-1.151c20.576,0.897,23.547-2.745,23.998-3.371
	c3.196-4.347,1.902-8.098,0.755-10.576c-0.492-0.985-1.115-1.899-1.852-2.716c-2.203-2.32-3.58-3.041-6.442-4.147
	c-10.547-4.076-22.529,1.498-26.759,12.454c-4.23,10.956,0.884,23.138,11.431,27.214c2.13,0.753,4.374,1.133,6.634,1.122
	C127.431,89.589,155.12,88.513,153.861,88.429z M106.212,66.964c0,0-0.3-0.021,0.622-2.403c2.424-6.258,6.141-10.847,12.136-11.807
	c3.968-0.647,7.681,2.161,8.448,6.112c0.68,3.505-2.332,8.081-9.625,7.981L106.212,66.964z"/>
<path fill="#00C6FF" d="M192.923,89.184l-9.016-3.943l0,0l0.73,0.918c-12.566,2.699-25.341,1.635-30.727-0.113
	c-3.926-1.263-7.063-4.245-8.523-8.102c-0.753-1.913-1.217-3.928-1.377-5.979c-0.004-0.051-0.004-0.103,0-0.154
	c0.025-0.263,0.113-1.181,0.192-1.961c0.07-0.678,0.658-1.184,1.339-1.151c20.576,0.897,23.547-2.745,23.998-3.371
	c3.196-4.347,1.902-8.098,0.755-10.576c-0.492-0.985-1.115-1.899-1.852-2.716c-2.203-2.32-3.58-3.041-6.442-4.147
	c-10.547-4.076-22.529,1.498-26.759,12.454s0.884,23.138,11.431,27.214c2.13,0.753,4.374,1.133,6.634,1.122
	C165.993,89.589,194.183,89.272,192.923,89.184z M144.774,66.964c0,0-0.3-0.021,0.622-2.403c2.424-6.258,6.141-10.847,12.136-11.807
	c3.968-0.647,7.681,2.161,8.448,6.112c0.68,3.505-2.332,8.081-9.625,7.981L144.774,66.964z"/>
<path fill="#00C6FF" d="M80.479,86.631c0,0,17.873,1.64,27.385-1.147l11.264,3.392c0,0-34.01,0.793-46.568-0.672"/>
<path fill="#00C6FF" d="M83.215,85.534c-1.726,0.924-3.581,1.584-5.503,1.957C79.656,87.199,81.525,86.535,83.215,85.534z"/>
<path fill="#00C6FF" d="M88.314,53.66l-0.033-0.046c-2.107-2.405-4.763-4.266-7.743-5.424c-3.208-1.252-11.264-1.051-12.032-1.147
	c-0.145-0.035-0.294-0.049-0.442-0.042c0.121-0.075-0.121-0.15,0-0.225l12.291-31.929c0,0,3.033-7.184-10.697-5.107
	c0,0,8.941-0.96,4.79,7.184l-12.145,25.9l-2.115,4.51l-44.403,1.31c10.785,0.338,30.66,1.435,42.826,2.053
	c0,0-4.347,8.365-5.006,10.013c-3.438,8.891-0.738,18.582,6.008,24.148l-9.771,0.234L0,88.079
	c19.709,0.617,65.213,0.609,69.364,0.338c0.083,0,3.784,0,6.471,0c2.22,0.02,4.404-0.556,6.325-1.669
	c2.459-1.457,4.656-3.316,6.5-5.499c2.942-3.317,4.649-7.548,4.831-11.978C93.932,63.583,92.066,57.957,88.314,53.66z M82.698,84.04
	l-0.53,0.28c-9.45,4.785-20.443-2.824-19.7-13.388c0.149-2.07,0.607-4.107,1.36-6.041c0.323-0.832,0.698-1.643,1.122-2.428
	c5.077-9.416,18.524-10.063,24.031-0.893c0.1,0.167,0.199,0.338,0.296,0.513C93.554,69.847,90.612,79.676,82.698,84.04z"/>
<path fill="#00C6FF" d="M209.799,54.744l-0.083-0.042c-2.008-2.411-4.561-4.31-7.447-5.54c-10.267-4.376-22.333,0.388-27.206,10.643
	c-1.965,4.539-4.86,11.915-5.123,12.967c-0.02,0.078-0.043,0.154-0.071,0.229c0,0-18.407,50.382-18.253,50.482
	c-1.473,5.303-7.873,3.638-7.873,3.638c8.019,2.22,11.102,0.738,11.59-1.131l3.313-6.996l16.688-34.59
	c0.628-1.26,2.158-1.773,3.418-1.145c0.222,0.111,0.427,0.253,0.608,0.423c1.695,1.589,3.657,2.867,5.795,3.776
	c3.829,1.627,8.064,2.045,12.136,1.197h-0.088h0.092l0,0l0.125-0.029l0.229-0.046l0,0c6.633-1.479,12.176-6.009,14.944-12.216
	C215.873,69.216,214.788,60.823,209.799,54.744z M203.328,83.948c-1.961,1.058-4.115,1.712-6.333,1.923
	c-6.387,0.622-12.308-3.588-13.559-9.742c-0.715-3.843-0.224-7.812,1.406-11.365c0.607-1.361,1.361-2.65,2.249-3.847
	c5.636-7.589,17.456-7.33,22.375,0.718c0.097,0.161,0.193,0.324,0.288,0.488c4.304,7.625,1.612,17.295-6.013,21.599
	C203.604,83.801,203.467,83.876,203.328,83.948z"/>
<path fill="#00C6FF" d="M216.253,87.286c-8.411,0.918-16.033,0.626-21.319-1.01c-0.229,0.079-0.455,0.167-0.684,0.238
	c-2.756,0.818-5.599,1.314-8.469,1.477c1.744,0.834,0-0.33,2.503,0.776c10.151,1.156,26.701,0.884,32.325,0.651
	c-0.728-0.033-1.45-0.155-2.149-0.363C217.88,88.809,216.716,87.745,216.253,87.286z"/>
<path fill="#00C6FF" d="M238.695,84.161c3.146-18.941,9.884-28.37,10.559-29.838c0,0,1.489-1.877,1.615-2.036
	c0.206-0.266,0.297-0.605,0.25-0.939c-0.047-0.377-0.257-0.715-0.576-0.922c-0.306-0.158-0.649-0.23-0.993-0.209
	c-0.392,0.019-0.777,0.106-1.139,0.259c-0.327,0.129-0.64,0.291-0.935,0.484c-1.585,1.047-10.814,19.675-12.303,22.692
	c-0.163,0.325-3.229,7.33-4.172,8.448l-0.317,0.371c-1.573,1.84-3.204,2.462-5.591,2.086c-0.429-0.069-0.848-0.186-1.252-0.346
	c-2.453-1.004-4.119-3.317-4.293-5.962c-0.939-12.975,7.343-22.137,8.841-25.449c0.163-0.355,2.044-2.703,0.655-3.58
	c-0.839-0.484-1.889-0.404-2.645,0.2c-1.323,1.252-2.057,2.883-3.012,4.452c-0.955,1.569-1.844,3.171-2.658,4.802
	c-1.06,1.969-2.033,3.969-2.92,5.999c-0.891,2.04-1.665,4.129-2.315,6.258c-0.67,2.088-1.189,4.221-1.552,6.383
	c-0.369,2.153-0.33,4.357,0.117,6.496c0.147,0.75,0.384,1.48,0.705,2.174c0.314,0.68,0.736,1.304,1.252,1.848
	c0.058,0.063,0.125,0.121,0.188,0.179c0.45,0.44,0.978,0.794,1.556,1.043c0.699,0.208,1.42,0.33,2.149,0.363
	c0.584,0.046,1.143,0.071,1.502,0.063c7.848-0.175,9.42-3.25,9.241-2.666c-0.217,0.701-0.442,1.406-0.659,2.107l-2.27,1.289l0,0
	c-23.714,11.982-26.221,26.497-26.422,30.214c-0.165,1.469-0.114,2.955,0.15,4.41c0.24,1.6,0.873,3.115,1.844,4.41
	c1.188,1.733,3.082,2.852,5.173,3.058c2.101,0.227,4.224-0.129,6.137-1.026c1.827-0.905,3.478-2.126,4.877-3.609
	c1.401-1.473,2.669-3.068,3.788-4.764c2.551-3.765,4.72-7.774,6.475-11.97c1.747-4.172,3.422-8.382,5.027-12.629
	c0.515-1.413,1.015-2.804,1.502-4.172c0.179-0.505,0.626-1.727,1.101-3.45c6.375-7.009,17.727-13.647,17.727-13.647
	C251.415,76.927,243.246,81.416,238.695,84.161z M224.739,105.81c-1.085,3.485-2.242,6.983-3.471,10.493
	c-0.709,1.98-1.491,3.915-2.345,5.803c-0.868,1.909-2.099,3.631-3.626,5.069c-0.695,0.688-1.478,1.281-2.328,1.765
	c-0.834,0.49-1.745,0.834-2.695,1.018c-0.908,0.169-1.841,0.15-2.741-0.054c-0.922-0.204-3.534-2.028-4.118-4.172
	c-0.293-1.026-0.445-2.087-0.451-3.154c0.012-1.084,0.168-2.161,0.463-3.204c0.186-0.668,0.388-1.313,0.605-1.936l0.964-2.061
	l0.363-0.622c0.805-1.383,1.724-2.697,2.749-3.926c2.447-2.888,5.096-5.598,7.927-8.11c0.127-0.112,0.259-0.218,0.396-0.317
	c1.068-0.776,2.157-1.519,3.275-2.215c2.703-1.669,6.258-4.039,9.112-5.595C227.693,98.083,225.803,102.322,224.739,105.81z"/>
</svg>
