<?xml version="1.0" encoding="utf-8"?>
<!-- Generator: Adobe Illustrator 17.0.0, SVG Export Plug-In . SVG Version: 6.00 Build 0)  -->
<!DOCTYPE svg PUBLIC "-//W3C//DTD SVG 1.1//EN" "http://www.w3.org/Graphics/SVG/1.1/DTD/svg11.dtd">
<svg version="1.1" id="Layer_1" xmlns="http://www.w3.org/2000/svg" xmlns:xlink="http://www.w3.org/1999/xlink" x="0px" y="0px"
	 width="85.53px" height="141.73px" viewBox="84.06 0 85.53 141.73" enable-background="new 84.06 0 85.53 141.73"
	 xml:space="preserve">
<path fill="#00CFFF" d="M138.176,141.727H108.67V70.932H94.398V47.023h14.158c0.038-0.768,0.093-1.377,0.096-1.972
	c0.025-6.308,0.046-12.619,0.062-18.932c0.052-14.044,8.416-23.644,22.374-25.554c2.555-0.337,5.129-0.514,7.707-0.53
	c6.595-0.072,13.194-0.024,19.792-0.024h1.955v24.897h-3.841c-3.786,0-7.573-0.021-11.359,0c-4.337,0.031-7.087,2.798-7.087,7.087
	c0,4.867,0,9.734,0,14.86h22.463l-2.712,23.968h-19.83V141.727z"/>
</svg>
