<?xml version="1.0" encoding="utf-8"?>
<!-- Generator: Adobe Illustrator 17.0.0, SVG Export Plug-In . SVG Version: 6.00 Build 0)  -->
<!DOCTYPE svg PUBLIC "-//W3C//DTD SVG 1.1//EN" "http://www.w3.org/Graphics/SVG/1.1/DTD/svg11.dtd">
<svg version="1.1" id="Layer_1" xmlns="http://www.w3.org/2000/svg" xmlns:xlink="http://www.w3.org/1999/xlink" x="0px" y="0px"
	 width="186px" height="141.73px" viewBox="35.06 0 186 141.73" enable-background="new 35.06 0 186 141.73" xml:space="preserve">
<path fill="#FFFFFF" d="M40.781,125.841c18.617,1.818,37.226-3.535,52.032-14.966c-16.338-1.422-27.288-9.603-33.35-24.944
	c5.314,0.944,10.769,0.723,15.989-0.649c-9.436-2.04-17.659-7.782-22.823-15.939c-3.731-5.724-5.62-12.452-5.413-19.281
	c2.494,0.948,4.989,2.095,7.483,2.819c2.567,0.65,5.189,1.059,7.832,1.222c-8.39-6.046-13.828-15.363-14.966-25.642
	c-0.937-7.591,0.678-15.278,4.59-21.851c18.187,22.263,44.904,35.844,73.609,37.416c-0.224-2.145-0.524-4.091-0.624-6.036
	c-1.276-17.648,10.73-33.506,28.062-37.066c11.473-2.749,23.553,0.596,31.978,8.855c1.009,1.119,2.583,1.539,4.016,1.073
	c6.515-1.565,12.79-3.998,18.658-7.234c0.449-0.249,0.898-0.449,1.696-0.848c-2.623,7.892-7.802,14.685-14.717,19.306
	c6.572-0.666,13.001-2.349,19.057-4.989l0.399,0.424c-2.893,3.367-5.612,6.86-8.705,9.977c-2.494,2.494-5.313,4.59-7.907,6.984
	c-0.609,0.595-0.973,1.395-1.023,2.245c0,34.921-13.245,63.457-40.583,85.133c-13.533,10.512-29.712,17.073-46.744,18.957
	c-14.389,1.952-29.026,0.882-42.978-3.143C57.278,135.035,48.658,131.049,40.781,125.841z"/>
</svg>
